<?xml version="1.0" encoding="utf-8"?>
<!-- Generator: Adobe Illustrator 16.0.0, SVG Export Plug-In . SVG Version: 6.00 Build 0)  -->
<!DOCTYPE svg PUBLIC "-//W3C//DTD SVG 1.1//EN" "http://www.w3.org/Graphics/SVG/1.1/DTD/svg11.dtd">
<svg version="1.1" id="Layer_1" xmlns="http://www.w3.org/2000/svg" xmlns:xlink="http://www.w3.org/1999/xlink" x="0px" y="0px"
	 width="253.962px" height="260.967px" viewBox="101.11 136.533 253.962 260.967"
	 enable-background="new 101.11 136.533 253.962 260.967" xml:space="preserve">
<g id="Layer_9">
	<path fill="#F5A622" d="M225.103,385.219c0,0,0.896,0.6-9.104,2.6s-17.333-1.748-13,3.684c4.333,5.431,16.297,3.355,25.28,3.355
		c8.288,0,13.753-0.834,19.22-4.856c3.701-2.724,7.333-8.024,7.333-8.024"/>
</g>
<g id="Layer_6">
	<path fill="#F5A622" d="M253.893,334.997c0,0,56.694-4.785,53.361-38.785s4-55.064,24-42.532c20,12.532,34.666,63.2,13.333,87.866
		s-46.666,26-46.666,26s-24.057,4.667-44.028-6"/>
</g>
<g id="Layer_1_1_">
	<path fill="#F5A622" d="M136.058,165.317c0,0-15.2-23.2,9.6-28c24.8-4.8,23.2,14,23.2,14s23.733-7.6,66.934,7.6c0,0,1.2-19.2,16-16
		S269.455,157.489,269,163.5c-0.443,5.874-5.75,8.5-11.875,13.417c0,0,2.475,29.791-2,47.333
		c-2.391,9.371-9.477,11.086-11.333,11.667c0,0,12.793,1.999,23.729,48.333c10.938,46.334,7.912,63-0.896,85
		c-9.378,23.423-54.643,23.684-69.458,22.25c-20.667-2-87.708,1.084-94.375-1.582c0,0-8.667-6,13.333-10c0,0-17.333-8-11.333-64.666
		c6-56.668,33.333-87.335,33.333-87.335s-6.636-2.395-9.417-12C125.958,206.417,136.058,165.317,136.058,165.317z"/>
	<ellipse fill="#FCB32E" cx="169.667" cy="184.432" rx="1.667" ry="1.431"/>
</g>
<g id="Layer_3">
	<polyline fill="#FFFFFF" points="177.131,221.527 177.131,234.223 188.732,236.223 200.333,238.223 200.333,224.437 	"/>
	<g>
		<line fill="none" x1="189.808" y1="220.75" x2="188.33" y2="236.75"/>
		<path d="M189.808,220.75c0,0,0.021,0.254,0.033,0.696c0.002,0.441,0.034,1.075,0.021,1.83c-0.013,1.511-0.114,3.519-0.295,5.52
			c-0.188,2-0.455,3.992-0.72,5.48c-0.125,0.745-0.273,1.361-0.356,1.795c-0.093,0.433-0.161,0.679-0.161,0.679
			s-0.021-0.254-0.033-0.696c-0.002-0.441-0.035-1.075-0.021-1.83c0.012-1.512,0.115-3.519,0.296-5.52
			c0.188-2,0.457-3.992,0.721-5.48c0.125-0.745,0.272-1.361,0.355-1.795C189.741,220.997,189.808,220.75,189.808,220.75z"/>
	</g>
</g>
<g id="Layer_2">
	<g>
		<path fill="#F5A622" d="M163.667,214.674c0,0,0.667,9.333,10,10s15.973-2.093,15.973-2.093s3.944,5.094,15.944,5.76
			s14.75-7.333,14.75-7.333"/>
		<path d="M163.716,214.669c0.117,0.646,0.274,1.284,0.484,1.902c0.197,0.624,0.468,1.216,0.734,1.805l0.457,0.854l0.527,0.807
			c0.384,0.513,0.792,1.005,1.255,1.438c0.213,0.237,0.458,0.437,0.712,0.626c0.253,0.189,0.484,0.409,0.769,0.552l0.816,0.479
			l0.877,0.361c0.577,0.26,1.218,0.342,1.821,0.53c0.63,0.073,1.263,0.223,1.893,0.238c0.66,0.023,1.319,0.055,1.978,0.102
			l0.988,0.062l0.977-0.013l1.96-0.025c0.654-0.039,1.309-0.1,1.962-0.17c0.656-0.053,1.305-0.157,1.952-0.274
			c0.649-0.105,1.298-0.214,1.932-0.394c1.274-0.306,2.547-0.68,3.741-1.183l0.153-0.064l0.116,0.135
			c0.214,0.251,0.508,0.479,0.76,0.718l0.859,0.634c0.579,0.412,1.229,0.726,1.836,1.092l1.958,0.868
			c0.664,0.26,1.362,0.437,2.037,0.668c0.342,0.103,0.674,0.235,1.023,0.315l1.053,0.214l2.104,0.43l2.142,0.213
			c0.704,0.069,1.448,0.162,2.119,0.213c0.725-0.002,1.46,0.044,2.175,0.029c0.698-0.065,1.399-0.061,2.097-0.178
			c0.699-0.107,1.405-0.192,2.082-0.398c0.696-0.146,1.348-0.416,2.014-0.658c0.635-0.303,1.286-0.59,1.88-0.975
			c0.312-0.172,0.601-0.375,0.882-0.593c0.292-0.203,0.569-0.426,0.828-0.67c0.542-0.463,1.02-0.997,1.478-1.548
			c0.437-0.566,0.845-1.17,1.141-1.825l0.095,0.032c-0.233,0.702-0.581,1.353-0.97,1.981c-0.407,0.615-0.849,1.219-1.383,1.735
			c-0.252,0.274-0.525,0.528-0.815,0.762c-0.278,0.249-0.568,0.484-0.881,0.688c-0.595,0.456-1.264,0.797-1.927,1.142
			c-0.689,0.288-1.373,0.602-2.097,0.79c-0.71,0.247-1.446,0.371-2.179,0.516c-0.733,0.148-1.495,0.156-2.243,0.238
			c-0.738,0.024-1.458,0.01-2.187,0.002c-0.778-0.058-1.478-0.151-2.221-0.226c-0.732-0.083-1.465-0.162-2.193-0.267l-2.16-0.495
			l-1.079-0.248c-0.357-0.091-0.701-0.236-1.052-0.352c-0.695-0.254-1.401-0.479-2.079-0.774l-1.988-0.994
			c-0.613-0.424-1.258-0.791-1.835-1.259l-0.854-0.716c-0.26-0.277-0.535-0.51-0.778-0.827l0.268,0.071
			c-1.275,0.433-2.545,0.791-3.843,1.075c-0.644,0.162-1.298,0.263-1.947,0.399c-0.649,0.136-1.301,0.259-1.96,0.331l-1.972,0.281
			l-1.996,0.165l-1.001,0.08l-0.99,0.003c-0.661,0.008-1.321,0-1.98-0.017c-0.692-0.003-1.358-0.144-2.039-0.211
			c-0.335-0.066-0.665-0.168-0.995-0.262c-0.331-0.091-0.662-0.182-0.971-0.339l-0.943-0.42l-0.877-0.546
			c-0.303-0.166-0.552-0.409-0.82-0.623c-0.27-0.213-0.529-0.438-0.754-0.699c-0.489-0.483-0.877-1.051-1.251-1.617
			c-0.167-0.296-0.342-0.586-0.5-0.886l-0.418-0.922c-0.488-1.255-0.797-2.575-0.851-3.906L163.716,214.669z"/>
	</g>
</g>
<g id="Layer_4">
	<ellipse fill="#FFFFFF" cx="172.167" cy="185.863" rx="8.5" ry="7.75"/>
	<ellipse fill="#FFFFFF" cx="213.5" cy="189.125" rx="8.5" ry="6.875"/>
	<g>
		<path d="M124.806,260.866c0,0,1.385-0.243,3.778-0.79c1.194-0.286,2.643-0.633,4.287-1.102c0.827-0.216,1.697-0.476,2.611-0.766
			c0.911-0.296,1.888-0.542,2.876-0.9c0.994-0.34,2.029-0.692,3.1-1.06c1.055-0.409,2.146-0.832,3.267-1.269
			c2.241-0.873,4.572-1.907,7.041-2.844c2.473-0.926,5.02-1.933,7.829-2.435c0.706-0.108,1.429-0.199,2.199-0.116
			c0.385,0.052,0.783,0.133,1.167,0.336c0.388,0.193,0.733,0.538,0.932,0.944c0.386,0.829,0.27,1.659,0.116,2.376
			c-0.166,0.73-0.412,1.42-0.698,2.081c-0.284,0.663-0.611,1.3-0.947,1.928l-0.535,0.955l-0.581,0.875
			c-0.412,0.571-0.718,1.187-1.212,1.722c-0.463,0.547-0.926,1.094-1.386,1.637c-1.964,2.023-4.163,3.715-6.432,5.113
			c-2.303,1.336-4.621,2.469-6.913,3.28c-1.125,0.462-2.271,0.765-3.351,1.136c-1.102,0.301-2.161,0.609-3.191,0.85
			c-4.121,0.979-7.64,1.316-10.093,1.477c-1.229,0.068-2.195,0.089-2.855,0.074c-0.658-0.003-1.009-0.004-1.009-0.004
			s0.351-0.018,1.008-0.051c0.658-0.018,1.619-0.103,2.841-0.213c1.219-0.131,2.699-0.305,4.378-0.607
			c1.683-0.285,3.562-0.704,5.593-1.223c1.015-0.262,2.055-0.594,3.136-0.916c1.058-0.395,2.182-0.72,3.279-1.203
			c2.241-0.854,4.477-2.034,6.725-3.34c2.203-1.383,4.325-3.045,6.2-5.008c0.429-0.515,0.86-1.031,1.292-1.549
			c0.456-0.488,0.782-1.143,1.181-1.706l0.574-0.88l0.483-0.884c0.322-0.61,0.63-1.229,0.896-1.856
			c0.276-0.623,0.506-1.263,0.657-1.897c0.154-0.628,0.197-1.294-0.025-1.744c-0.211-0.438-0.711-0.694-1.339-0.759
			c-0.618-0.074-1.289-0.004-1.945,0.094c-2.649,0.447-5.211,1.424-7.666,2.324c-2.456,0.927-4.811,1.885-7.086,2.712
			c-1.139,0.409-2.247,0.809-3.319,1.194c-1.086,0.342-2.136,0.672-3.143,0.988c-2.022,0.604-3.891,1.115-5.564,1.49
			c-1.666,0.404-3.133,0.691-4.339,0.932C126.203,260.711,124.806,260.866,124.806,260.866z"/>
	</g>
	<g>
		<path d="M255.998,269.104c0,0-1.396-0.155-3.816-0.601c-1.207-0.239-2.674-0.526-4.34-0.933c-1.673-0.375-3.541-0.885-5.563-1.489
			c-1.008-0.317-2.057-0.647-3.144-0.989c-1.071-0.386-2.18-0.783-3.318-1.193c-2.276-0.828-4.63-1.785-7.087-2.713
			c-2.454-0.899-5.016-1.877-7.666-2.324c-0.656-0.098-1.327-0.168-1.945-0.094c-0.628,0.064-1.128,0.32-1.339,0.76
			c-0.222,0.451-0.179,1.117-0.025,1.744c0.15,0.635,0.38,1.273,0.657,1.897c0.267,0.628,0.575,1.245,0.896,1.856l0.483,0.884
			l0.574,0.88c0.399,0.564,0.725,1.218,1.181,1.706c0.432,0.519,0.863,1.034,1.292,1.549c1.875,1.961,3.997,3.625,6.2,5.008
			c2.248,1.306,4.484,2.484,6.725,3.341c1.097,0.482,2.221,0.809,3.278,1.202c1.081,0.322,2.122,0.654,3.137,0.916
			c2.031,0.519,3.91,0.937,5.592,1.222c1.679,0.305,3.16,0.479,4.378,0.607c1.222,0.111,2.184,0.196,2.842,0.213
			c0.656,0.033,1.008,0.051,1.008,0.051s-0.352,0.002-1.01,0.004c-0.659,0.016-1.625-0.004-2.854-0.073
			c-2.453-0.16-5.972-0.498-10.093-1.478c-1.03-0.238-2.089-0.549-3.191-0.849c-1.079-0.371-2.225-0.674-3.35-1.136
			c-2.293-0.812-4.61-1.945-6.913-3.28c-2.27-1.397-4.468-3.09-6.432-5.113c-0.46-0.544-0.922-1.09-1.386-1.637
			c-0.495-0.536-0.801-1.149-1.212-1.722l-0.581-0.875l-0.535-0.955c-0.335-0.629-0.663-1.264-0.947-1.928
			c-0.286-0.662-0.532-1.352-0.698-2.082c-0.154-0.717-0.271-1.547,0.116-2.375c0.199-0.405,0.544-0.752,0.932-0.944
			c0.385-0.203,0.783-0.283,1.167-0.336c0.77-0.082,1.493,0.008,2.199,0.116c2.809,0.5,5.355,1.509,7.828,2.435
			c2.469,0.937,4.8,1.972,7.041,2.844c1.122,0.437,2.212,0.858,3.267,1.269c1.071,0.365,2.106,0.72,3.1,1.059
			c0.988,0.359,1.965,0.605,2.877,0.9c0.913,0.291,1.784,0.551,2.61,0.767c1.644,0.47,3.092,0.813,4.288,1.101
			C254.613,268.859,255.998,269.104,255.998,269.104z"/>
	</g>
</g>
<g id="Layer_5">
	<path fill="#51262D" d="M182.125,199.75c4.722-2.365,14.666-2.787,18.208,3c2.959,4.833-2.83,6.917-6.334,7.25
		c-1.185,0.113-8.823,0.289-11.99-1.711S177.794,201.919,182.125,199.75z"/>
</g>
<g id="Layer_8">
	<ellipse cx="170.083" cy="184.057" rx="2.083" ry="1.806"/>
	<ellipse cx="215.5" cy="187.669" rx="2.083" ry="1.806"/>
</g>
<g id="Layer_10">
	<g>
		<path d="M208.924,394.857c0,0-0.166-0.053-0.478-0.148s-0.769-0.243-1.338-0.467c-0.572-0.217-1.255-0.512-2.021-0.898
			c-0.767-0.385-1.599-0.896-2.426-1.58c-0.813-0.689-1.646-1.574-2.148-2.766c-0.526-1.178-0.543-2.666-0.055-3.975
			c0.473-1.33,1.322-2.465,2.33-3.5c0.234-0.235,0.501-0.474,0.811-0.705c0.294-0.242,0.596-0.414,0.897-0.623
			c0.619-0.365,1.254-0.701,1.907-0.982c2.606-1.15,5.347-1.812,7.913-2.339c2.575-0.5,4.994-0.827,7.066-1.087
			c2.074-0.25,3.808-0.395,5.015-0.537c0.604-0.068,1.078-0.125,1.398-0.18c0.321-0.057,0.484-0.117,0.484-0.117
			s-0.157,0.078-0.473,0.165c-0.316,0.084-0.783,0.198-1.382,0.312c-1.198,0.215-2.91,0.521-4.964,0.887
			c-2.053,0.351-4.441,0.797-6.965,1.391c-2.52,0.586-5.203,1.302-7.688,2.406c-1.244,0.57-2.401,1.208-3.343,2.125
			c-0.905,0.906-1.706,1.982-2.143,3.105c-0.457,1.129-0.451,2.328-0.075,3.368c0.372,1.048,1.081,1.909,1.814,2.601
			c1.51,1.361,3.055,2.195,4.133,2.736C208.281,394.582,208.924,394.857,208.924,394.857z"/>
	</g>
</g>
</svg>
